<svg xmlns="http://www.w3.org/2000/svg" viewBox="0 0 200 200" role="img" aria-label="Modern Med Clinic">
  <rect width="200" height="200" rx="36" fill="#ffffff"/>
  <rect x="60" y="10" width="80" height="180" rx="8" fill="#b81c1c"/>
  <rect x="10" y="60" width="180" height="80" rx="8" fill="#b81c1c"/>
  <rect x="72" y="22" width="56" height="156" rx="5" fill="#ffffff" opacity=".18"/>
  <rect x="22" y="72" width="156" height="56" rx="5" fill="#ffffff" opacity=".18"/>
  <circle cx="100" cy="62" r="18" fill="#ffffff"/>
  <path d="M72 95C72 82 82 76 100 76s28 6 28 19v50c0 5-4 9-9 9H81c-5 0-9-4-9-9Z" fill="#ffffff"/>
  <path d="M88 76l12 29 12-29" fill="none" stroke="#b81c1c" stroke-width="4" stroke-linecap="round"/>
  <rect x="96" y="108" width="8" height="18" rx="2" fill="#b81c1c"/>
  <rect x="91" y="113" width="18" height="8" rx="2" fill="#b81c1c"/>
</svg>
